<svg xmlns="http://www.w3.org/2000/svg" viewBox="0 0 524.93 170.14"><defs><style>.cls-1{fill:#008752;}</style></defs><title>Leddy-Logo</title><g id="Layer_2" data-name="Layer 2"><g id="Layer_1-2" data-name="Layer 1"><path class="cls-1" d="M72,21.25H89.73v2.54q-8.48.23-8.47,11.65,0,1,.06,2l3.79,54q.65,8.63,2.54,11.48c1.26,1.9,3.54,3,6.83,3.37v2.54H67.4v-2.54c2.87-.54,4.9-1.65,6.08-3.3s1.76-4.17,1.76-7.58c0-.7,0-1.47-.06-2.33l-4-56.62L45.36,108.8h-2L17.93,36.6,13.69,90.45c0,.84-.06,1.64-.06,2.39q0,11.32,9.8,13.42v2.54H0v-2.54q4.68-.75,6.77-3.84c1.39-2.06,2.34-6.16,2.86-12.27l4.55-60.24a16.18,16.18,0,0,0-9.82-6.12V21.25H23.44l24.09,68.9Z"/><path class="cls-1" d="M103.23,96a5.2,5.2,0,0,1,4.16,2.08,7.79,7.79,0,0,1,1.72,5.08,7.91,7.91,0,0,1-1.75,5.15,5.19,5.19,0,0,1-4.13,2.17A5.32,5.32,0,0,1,99,108.35a7.83,7.83,0,0,1-1.78-5.15,7.59,7.59,0,0,1,1.78-5A5.35,5.35,0,0,1,103.23,96Z"/><path class="cls-1" d="M168.67,89.7h2.14l-4.41,19.1h-52v-2.54q4.41,0,6.27-3.35t1.87-11.29V36.49q0-7.09-1.74-9.9c-1.17-1.86-3.3-2.8-6.4-2.8V21.25h25.71v2.54q-4.29,0-6.15,3.21t-1.87,10.6V96.11c0,3.24.56,5.45,1.68,6.65s3.28,1.79,6.46,1.79h14.26q6.61,0,9.24-2.8T168.67,89.7Z"/><path class="cls-1" d="M177.43,96a5.2,5.2,0,0,1,4.16,2.08,7.79,7.79,0,0,1,1.72,5.08,7.91,7.91,0,0,1-1.75,5.15,5.19,5.19,0,0,1-4.13,2.17,5.32,5.32,0,0,1-4.22-2.17,7.83,7.83,0,0,1-1.78-5.15,7.59,7.59,0,0,1,1.78-5A5.35,5.35,0,0,1,177.43,96Z"/><path class="cls-1" d="M471.83,122.52h.32v2.62h-.32a1.65,1.65,0,0,0-.42-.87,2.29,2.29,0,0,0-1.09-.17h-2.67V128a.75.75,0,0,0,.18.57.89.89,0,0,0,.61.17h1.88a6.11,6.11,0,0,0,1.4-.11,1.42,1.42,0,0,0,.66-.41,4.14,4.14,0,0,0,.56-1h.33l-.5,2H465v-.31a1.1,1.1,0,0,0,1-.37,2.5,2.5,0,0,0,.25-1.33v-6.74a2.62,2.62,0,0,0-.25-1.35,1.11,1.11,0,0,0-1-.37v-.32h7.77v1.81h-.2a1.86,1.86,0,0,0-.47-1,2.36,2.36,0,0,0-1.34-.25h-3.11v4.61h3a1.18,1.18,0,0,0,.84-.22A1.44,1.44,0,0,0,471.83,122.52Z"/><path class="cls-1" d="M478.57,122.37v2h-.37a2.06,2.06,0,0,0-.55-1.23,1.55,1.55,0,0,0-1.12-.45,1.25,1.25,0,0,0-.8.24.83.83,0,0,0-.3.67,1,1,0,0,0,.28.71,4.08,4.08,0,0,0,1.22.74,4.31,4.31,0,0,1,1.6,1.06,1.93,1.93,0,0,1,.39,1.21,2,2,0,0,1-.62,1.45,2,2,0,0,1-1.48.61,3,3,0,0,1-1.17-.32,1.81,1.81,0,0,0-.52-.18.39.39,0,0,0-.3.14.5.5,0,0,0-.14.32h-.32v-2.27h.32a2.43,2.43,0,0,0,.78,1.42,2,2,0,0,0,1.37.53,1.16,1.16,0,0,0,.83-.34,1.11,1.11,0,0,0,.33-.82,1.16,1.16,0,0,0-.31-.81,4.12,4.12,0,0,0-1.33-.8,4.19,4.19,0,0,1-1.53-1,1.64,1.64,0,0,1-.37-1.07,1.8,1.8,0,0,1,.6-1.35,2.07,2.07,0,0,1,1.44-.56,2.26,2.26,0,0,1,.83.18,1.44,1.44,0,0,0,.53.13.41.41,0,0,0,.39-.31Z"/><path class="cls-1" d="M481.73,120.29h.32v2.24h2.32V123h-2.32v4.3a1.46,1.46,0,0,0,.32,1,1.1,1.1,0,0,0,.89.36,1.64,1.64,0,0,0,1.24-.64l.21.25a2.53,2.53,0,0,1-2,1.11,1.86,1.86,0,0,1-1.39-.54,1.9,1.9,0,0,1-.54-1.4V123h-1.26v-.32A5,5,0,0,0,481.73,120.29Z"/><path class="cls-1" d="M487.14,127.9a.85.85,0,0,1,.62.26.89.89,0,0,1,0,1.26.84.84,0,0,1-.62.27.9.9,0,0,1-.9-.9.85.85,0,0,1,.26-.62A.87.87,0,0,1,487.14,127.9Z"/><path class="cls-1" d="M496.52,127.75v-7.4c0-.25,0-.38-.15-.38a1.07,1.07,0,0,0-.25.07,3.9,3.9,0,0,1-1.22.31V120a7.08,7.08,0,0,0,2.54-1.83h.33v9.55a1.47,1.47,0,0,0,.2,1,1.29,1.29,0,0,0,.91.22v.29h-3.47v-.29a1.26,1.26,0,0,0,.9-.22A1.54,1.54,0,0,0,496.52,127.75Z"/><path class="cls-1" d="M501.94,129.41v-.32a6.22,6.22,0,0,0,5.52-5.87,3.93,3.93,0,0,1-2.67,1.18,2.82,2.82,0,0,1-2.11-.86,3,3,0,0,1-.83-2.19,3,3,0,0,1,1-2.27,3.4,3.4,0,0,1,2.42-.91,3.28,3.28,0,0,1,2.61,1.19,4.48,4.48,0,0,1,1,3,6.48,6.48,0,0,1-2,4.78A7.73,7.73,0,0,1,501.94,129.41Zm1.2-8.4a2.78,2.78,0,0,0,.62,1.88,2,2,0,0,0,1.61.7,3,3,0,0,0,2.09-1,5.36,5.36,0,0,0-.66-2.88,2,2,0,0,0-1.75-1,1.67,1.67,0,0,0-1.37.66A2.58,2.58,0,0,0,503.14,121Z"/><path class="cls-1" d="M511.3,128.45h5.32v.77h-6.18v-.38a31,31,0,0,0,3.57-4.2,5.58,5.58,0,0,0,1-3,2.85,2.85,0,0,0-.54-1.83,1.74,1.74,0,0,0-1.44-.66,1.9,1.9,0,0,0-1.36.51,2.24,2.24,0,0,0-.63,1.45h-.31a2.88,2.88,0,0,1,.42-1.41,3.13,3.13,0,0,1,1-1.17,2.47,2.47,0,0,1,1.4-.41,2.54,2.54,0,0,1,1.93.86,3.08,3.08,0,0,1,.8,2.15,5.55,5.55,0,0,1-1.15,3.13A27.1,27.1,0,0,1,511.3,128.45Z"/><path class="cls-1" d="M519.61,128.45h5.32v.77h-6.18v-.38a30.8,30.8,0,0,0,3.56-4.2,5.49,5.49,0,0,0,1.05-3,2.85,2.85,0,0,0-.53-1.83,1.75,1.75,0,0,0-1.45-.66,1.89,1.89,0,0,0-1.35.51,2.24,2.24,0,0,0-.63,1.45h-.32a3.1,3.1,0,0,1,.42-1.41,3.15,3.15,0,0,1,1-1.17,2.47,2.47,0,0,1,1.4-.41,2.54,2.54,0,0,1,1.93.86,3.08,3.08,0,0,1,.8,2.15,5.57,5.57,0,0,1-1.16,3.13A26.93,26.93,0,0,1,519.61,128.45Z"/><path class="cls-1" d="M276.18,92.81l0,5.17c-3.63,4.62-5.94,6.68-9.71,8.66a28.89,28.89,0,0,1-13.59,3q-14,0-23.17-8.79t-9.13-22.3q0-13.6,8.72-22.93a28.11,28.11,0,0,1,21.35-9.31,26.28,26.28,0,0,1,18.18,7q7.76,7,7.76,16.74v1.24h-44v.83a44.87,44.87,0,0,0,3,17.19,25.73,25.73,0,0,0,8.8,11.42,20.49,20.49,0,0,0,12.06,4.12,19.62,19.62,0,0,0,10-2.43A23.73,23.73,0,0,0,276.18,92.81ZM232.53,68.37h32.63V67.22q0-8-4.59-12.7a15.33,15.33,0,0,0-11.44-4.7,14.93,14.93,0,0,0-11.69,5Q233,59.72,232.53,68.37Z"/><path class="cls-1" d="M335.11,6.5h2.76V97.57q0,5.09,2.12,7t7.73,2v2.88H313.38q-15.87,0-25.11-9.06T279,77.51a32,32,0,0,1,8.1-22.06q8.1-9.09,19.57-9.1,9.19,0,19.86,7.45V22.08q0-6.18-1.54-8.38t-6.27-2.2h-3.34V8.62Zm-8.55,90.82v-37a26.54,26.54,0,0,0-8-7.58A17.72,17.72,0,0,0,309.39,50a15.32,15.32,0,0,0-13,6.9q-5,6.9-5,18,0,14.31,6.8,23t19,8.72c3.31,0,5.7-.74,7.16-2.2S326.56,100.6,326.56,97.32Z"/><path class="cls-1" d="M403,6.5h2.77V97.57q0,5.09,2.11,7t7.73,2v2.88H381.22q-15.87,0-25.11-9.06t-9.24-22.86A32,32,0,0,1,355,55.45q8.1-9.09,19.57-9.1,9.19,0,19.86,7.45V22.08c0-4.12-.51-6.91-1.55-8.38s-3.12-2.2-6.26-2.2h-3.34V8.62ZM394.4,97.32v-37a26.54,26.54,0,0,0-8-7.58A17.72,17.72,0,0,0,377.23,50q-8.06,0-13,6.9t-5,18q0,14.31,6.8,23t19,8.72c3.31,0,5.7-.74,7.16-2.2S394.4,100.6,394.4,97.32Z"/><path class="cls-1" d="M513.51,44.58V63.42H510a18.13,18.13,0,0,0-5.2-11.28A14.51,14.51,0,0,0,494.27,48a11.75,11.75,0,0,0-7.54,2.28,7.38,7.38,0,0,0-2.86,6.08,9.32,9.32,0,0,0,2.64,6.55q2.64,2.84,11.48,6.8,11.44,5.07,15.13,9.71a17.44,17.44,0,0,1,3.68,11.15,17.78,17.78,0,0,1-5.89,13.31,19.57,19.57,0,0,1-14,5.62q-4.17,0-11-3a16.82,16.82,0,0,0-4.94-1.61,3.67,3.67,0,0,0-2.77,1.19,4.75,4.75,0,0,0-1.3,3h-3V88.17h3a22.36,22.36,0,0,0,7.28,13.07,19.2,19.2,0,0,0,12.91,4.84,10.87,10.87,0,0,0,7.84-3,10,10,0,0,0,3.17-7.53A10.73,10.73,0,0,0,505.22,88q-2.91-3.17-12.61-7.32Q481.69,76,478.23,72a14.59,14.59,0,0,1-3.46-9.81,16.22,16.22,0,0,1,5.68-12.38,19.26,19.26,0,0,1,13.47-5.2,21.37,21.37,0,0,1,7.89,1.69,14.32,14.32,0,0,0,4.94,1.18c1.67,0,2.91-1,3.72-2.87Z"/><path class="cls-1" d="M477.54,30.42l-14.68-5.18.35-1,.28,1-.28-1-.35,1-3.11-1.11,18-5L478.85,0,490,15.69l18-5L496.3,25.31l11,15.94-18.09-7.36L477.32,49.75l.22-19.33ZM479.65,29l-.16,14.43,9-12,13.09,5.32-7.9-11.45,8.6-10.78L489.15,18.1l-8.54-12-.81,14.62-13.11,3.66,13,4.58Z"/><path class="cls-1" d="M53.1,135.36v20.35a3.27,3.27,0,0,0,.38,1.88c.26.32.93.49,2,.49l-.17.7H48l-.13-.7a3,3,0,0,0,1.88-.4c.32-.26.47-.84.47-1.74v-6.7H44.88l-2.37,4c-1.25,2.13-1.88,3.46-1.88,4s.61.83,1.84.83l-.16.7H36.24l.16-.7a4.16,4.16,0,0,0,2-.63,8.08,8.08,0,0,0,2-2.46l11.93-19.63Zm-2.89,13v-8h-.08l-4.66,8Z"/><path class="cls-1" d="M94.56,135.85l-.16.7a3.15,3.15,0,0,0-1.89.81,5.22,5.22,0,0,0-.79,2.1l-3.5,16.25a4.75,4.75,0,0,0-.16,1.07c0,.77.58,1.2,1.76,1.3l-.18.7h-7.2l.17-.7a2.81,2.81,0,0,0,2-.81,7.1,7.1,0,0,0,.88-2.46l1.68-7.69H75.52l-1.86,8.59a5.43,5.43,0,0,0-.12,1q0,1.28,1.92,1.38l-.17.7H67.75l.18-.7a3.12,3.12,0,0,0,1.92-.5,4.37,4.37,0,0,0,1.05-2.43l3.51-16.28a4.58,4.58,0,0,0,.11-.86c0-.92-.67-1.4-2-1.46l.17-.7H80l-.16.7a3.08,3.08,0,0,0-1.92.8,5.55,5.55,0,0,0-.76,2.11L75.76,146H87.43L89,138.87a4.3,4.3,0,0,0,.11-.86c0-.92-.62-1.4-1.86-1.46l.16-.7Z"/><path class="cls-1" d="M106.14,144.74l-2.23,10.16a5.91,5.91,0,0,0-.12,1.08c0,1.12.62,1.59,1.88,1.43l-.17.71-4.88,1,.57-2.67-.08-.08c-1.45,1.88-3.08,2.83-4.9,2.83q-4,0-4-4.26a9.33,9.33,0,0,1,3.51-7.13,13.38,13.38,0,0,1,9.23-3.12Zm-2.76,1.52a10.84,10.84,0,0,0-1.13-.06,7.18,7.18,0,0,0-5.56,2.35,8.23,8.23,0,0,0-2.14,5.73q0,3.32,2.86,3.31a4.12,4.12,0,0,0,2.74-1.1,6.22,6.22,0,0,0,1.32-1.3Z"/><path class="cls-1" d="M115.6,144.78l-.53,2.4.09.08a14.18,14.18,0,0,1,2.37-1.91,4.51,4.51,0,0,1,2.34-.61,4,4,0,0,1,2.84,1,3.65,3.65,0,0,1,1.09,2.82,7.37,7.37,0,0,1-.16,1.5l-1.35,6.35a3.91,3.91,0,0,0-.1.73.72.72,0,0,0,.42.73,4.55,4.55,0,0,0,1.66.2l-.13.7h-6.82l.12-.7a3.26,3.26,0,0,0,1.8-.47,3,3,0,0,0,.71-1.67l1.43-6.58a2.92,2.92,0,0,0,.09-.7,2.15,2.15,0,0,0-.66-1.64,2.39,2.39,0,0,0-1.7-.62q-1.87,0-4.31,2.52l-1.42,6.71a7.7,7.7,0,0,0-.2,1.33.89.89,0,0,0,.43.88,3.46,3.46,0,0,0,1.54.24l-.12.7H109l.12-.7c.93-.1,1.53-.78,1.8-2.06l1.63-7.56a3.28,3.28,0,0,0,.07-.65c0-.83-.35-1.25-1-1.25a6.67,6.67,0,0,0-1.59.24l.2-.91,4.61-1.11Z"/><path class="cls-1" d="M142.18,134.19,137.8,154.7a7.74,7.74,0,0,0-.22,1.53c0,.79.47,1.18,1.43,1.18q.35,0,1.38-.12l-.22.83-5.6,1,.41-1.92c-1.8,1.33-3.3,2-4.52,2a3.62,3.62,0,0,1-2.83-1.46,5.15,5.15,0,0,1-1.21-3.42,9.2,9.2,0,0,1,2.89-6.56q2.9-3,8.31-2.86L139,138.5a5.85,5.85,0,0,0,.19-1.3c0-.78-.44-1.17-1.31-1.17-.65,0-1.16,0-1.51,0l.2-.83,4.78-1.05Zm-4.76,11.7h-1.84a5.93,5.93,0,0,0-5,2.22,8.53,8.53,0,0,0-1.73,5.43,4.52,4.52,0,0,0,.91,2.89,2.77,2.77,0,0,0,2.28,1.16,4.76,4.76,0,0,0,3.15-1.41Z"/><path class="cls-1" d="M164.87,149.28l-1.47,7a3.65,3.65,0,0,0-.08.67q0,1.11,1.5,1.11l-.13.7h-6l.14-.7a2.17,2.17,0,0,0,1.55-.59,5.36,5.36,0,0,0,.78-2.22l1.31-6.15a4.2,4.2,0,0,0,.08-.77c0-1.3-.72-1.95-2.15-1.95-.85,0-1.93.71-3.26,2.13l-1.59,7.18a5.59,5.59,0,0,0-.16,1.17c0,.8.57,1.2,1.72,1.2l-.12.7h-6.07l.12-.7c1.09-.09,1.79-.81,2.09-2.18l1.43-6.62a4.22,4.22,0,0,0,.1-.91c0-1.31-.61-2-1.81-2a3.5,3.5,0,0,0-2.44,1.24,5.56,5.56,0,0,0-1.33,1.65l-1.41,6.43a6,6,0,0,0-.18,1.21c0,.76.66,1.15,2,1.15l-.12.7h-6.05l.12-.7c.9,0,1.54-1,1.92-2.81l1.43-6.73a4.54,4.54,0,0,0,.12-.92c0-.73-.43-1.1-1.28-1.1a6.17,6.17,0,0,0-.8.06l.16-.71,4.25-1.05h.85l-.59,2.49.07.08c1.58-1.77,3.06-2.65,4.46-2.65a2.77,2.77,0,0,1,3.05,2.66,15.09,15.09,0,0,1,2.34-2,4,4,0,0,1,2.22-.65,3.41,3.41,0,0,1,2.46.88A3.22,3.22,0,0,1,165,148,6.25,6.25,0,0,1,164.87,149.28Z"/><path class="cls-1" d="M182.08,144.74l-2.24,10.16a5.91,5.91,0,0,0-.12,1.08c0,1.12.63,1.59,1.88,1.43l-.16.71-4.89,1,.57-2.67-.08-.08c-1.44,1.88-3.07,2.83-4.89,2.83q-4,0-4-4.26a9.33,9.33,0,0,1,3.51-7.13,13.38,13.38,0,0,1,9.23-3.12Zm-2.77,1.52a10.84,10.84,0,0,0-1.13-.06,7.16,7.16,0,0,0-5.55,2.35,8.24,8.24,0,0,0-2.15,5.73q0,3.32,2.87,3.31a4.08,4.08,0,0,0,2.73-1.1,6.22,6.22,0,0,0,1.32-1.3Z"/><path class="cls-1" d="M201.37,134.19,197,154.7a7.74,7.74,0,0,0-.22,1.53c0,.79.47,1.18,1.43,1.18q.35,0,1.38-.12l-.22.83-5.6,1,.41-1.92c-1.8,1.33-3.3,2-4.52,2a3.62,3.62,0,0,1-2.83-1.46,5.15,5.15,0,0,1-1.21-3.42,9.2,9.2,0,0,1,2.89-6.56q2.9-3,8.31-2.86l1.38-6.45a5.85,5.85,0,0,0,.19-1.3c0-.78-.44-1.17-1.31-1.17-.65,0-1.16,0-1.51,0l.2-.83,4.78-1.05Zm-4.76,11.7h-1.84a5.93,5.93,0,0,0-5,2.22,8.53,8.53,0,0,0-1.73,5.43,4.52,4.52,0,0,0,.91,2.89,2.78,2.78,0,0,0,2.28,1.16,4.76,4.76,0,0,0,3.15-1.41Z"/><path class="cls-1" d="M205.55,152.71a8.74,8.74,0,0,0-.06,1c0,2.42,1.13,3.63,3.37,3.63q2.46,0,4.68-2.93l.43.56a12.68,12.68,0,0,1-2.89,3.27,5.64,5.64,0,0,1-3.42,1,4.41,4.41,0,0,1-3.34-1.21,4.62,4.62,0,0,1-1.18-3.39,10.15,10.15,0,0,1,2.69-6.83,7.8,7.8,0,0,1,5.92-3.08,3,3,0,0,1,2,.64,2.12,2.12,0,0,1,.73,1.7c0,1.2-.79,2.33-2.39,3.4A16,16,0,0,1,205.55,152.71Zm.19-.75q6.27-1.14,6.27-4.13a1.51,1.51,0,0,0-.54-1.11,1.73,1.73,0,0,0-1.22-.5,3.71,3.71,0,0,0-2.88,1.78A8.23,8.23,0,0,0,205.74,152Z"/><path class="cls-1" d="M236.44,137l-3.93,18.33a8.85,8.85,0,0,0-.24,1.43c0,.83.64,1.27,1.92,1.34l-.12.7h-7.38l.12-.7a2.7,2.7,0,0,0,1.94-.74,4.58,4.58,0,0,0,.88-2L233.56,137H229.7c-1.91,0-3.16.68-3.75,2.06h-.71l.88-4h.71a1.35,1.35,0,0,0,.71.67,10.4,10.4,0,0,0,2.4.16h10.15c1.8,0,2.9-.28,3.29-.83h.76l-.88,4h-.71a2.93,2.93,0,0,0-.51-1.58,2.67,2.67,0,0,0-1.94-.48Z"/><path class="cls-1" d="M241.43,152.71a7,7,0,0,0-.07,1q0,3.63,3.38,3.63,2.44,0,4.68-2.93l.43.56a12.69,12.69,0,0,1-2.9,3.27,5.64,5.64,0,0,1-3.42,1,4.43,4.43,0,0,1-3.34-1.21,4.66,4.66,0,0,1-1.18-3.39,10.15,10.15,0,0,1,2.69-6.83,7.8,7.8,0,0,1,5.92-3.08,3,3,0,0,1,2,.64,2.13,2.13,0,0,1,.74,1.7c0,1.2-.8,2.33-2.4,3.4A16,16,0,0,1,241.43,152.71Zm.18-.75q6.27-1.14,6.27-4.13a1.51,1.51,0,0,0-.54-1.11,1.7,1.7,0,0,0-1.21-.5,3.71,3.71,0,0,0-2.89,1.78A8.23,8.23,0,0,0,241.61,152Z"/><path class="cls-1" d="M260.41,151.05l1.78,4.55a5.26,5.26,0,0,0,1.16,2.07,4,4,0,0,0,2.11.41l-.12.7H258.8l.12-.7c.95-.07,1.43-.39,1.43-1a3.12,3.12,0,0,0-.25-1.07l-1.2-3-2.82,3a1.72,1.72,0,0,0-.6,1.23c0,.5.37.76,1.11.79l-.14.7h-4.64l.12-.7a4.22,4.22,0,0,0,2.68-1.66l3.89-4.19L257,148.09a2.82,2.82,0,0,0-2.72-2.2l.16-.7H260l-.18.7q-.87,0-.87.75a2.59,2.59,0,0,0,.08.55l1,3.07,2-2.16a2.14,2.14,0,0,0,.67-1.42.69.69,0,0,0-.77-.79l.17-.7h4l-.14.7c-.75,0-1.79.71-3.13,2.28Z"/><path class="cls-1" d="M282.45,144.74l-2.23,10.16a5.91,5.91,0,0,0-.12,1.08c0,1.12.62,1.59,1.88,1.43l-.17.71-4.88,1,.57-2.67-.09-.08a6.15,6.15,0,0,1-4.89,2.83q-4,0-4-4.26a9.33,9.33,0,0,1,3.51-7.13,13.38,13.38,0,0,1,9.23-3.12Zm-2.76,1.52a11,11,0,0,0-1.13-.06,7.18,7.18,0,0,0-5.56,2.35,8.23,8.23,0,0,0-2.14,5.73q0,3.32,2.86,3.31a4.08,4.08,0,0,0,2.73-1.1c.86-.73,1.3-1.16,1.32-1.3Z"/><path class="cls-1" d="M295.05,145l-.71,3.3h-.68c-.32-1.71-1.2-2.56-2.63-2.56a2.11,2.11,0,0,0-1.44.52,1.57,1.57,0,0,0-.61,1.22c0,.8.58,1.88,1.76,3.25a15,15,0,0,1,2.18,3,4.37,4.37,0,0,1,.42,1.76,3.29,3.29,0,0,1-1.45,2.75,6.31,6.31,0,0,1-3.78,1.06,4.59,4.59,0,0,1-1.52-.23l-.45-.12a1.36,1.36,0,0,0-.63.25h-.71l.75-3.55h.76a2.6,2.6,0,0,0-.06.56,2.11,2.11,0,0,0,.69,1.6,2.24,2.24,0,0,0,1.57.66,3,3,0,0,0,2-.66,1.93,1.93,0,0,0,.81-1.54c0-.85-.68-2.08-2.05-3.68s-2.05-2.8-2.05-3.58a3.9,3.9,0,0,1,1.32-3,4.47,4.47,0,0,1,3.19-1.24,6.23,6.23,0,0,1,1.49.17l.7.16a.88.88,0,0,0,.33-.06l.16-.06Z"/><path class="cls-1" d="M322.38,155.23l-1.12,3.55H306.73l.18-.7a3.39,3.39,0,0,0,1.79-.61,4.22,4.22,0,0,0,1-2.24L313,139.54a9.8,9.8,0,0,0,.25-1.7q0-1.29-2.19-1.29l.12-.7h7.58l-.12.7a2.76,2.76,0,0,0-1.8.66,4.81,4.81,0,0,0-1,2.33l-3.42,15.85a3.43,3.43,0,0,0-.08.75c0,1.16.79,1.73,2.38,1.73h1.37a8.9,8.9,0,0,0,3.82-.59,3.8,3.8,0,0,0,1.76-2.05Z"/><path class="cls-1" d="M328.15,152.71a8.74,8.74,0,0,0-.06,1q0,3.63,3.37,3.63,2.44,0,4.68-2.93l.43.56a12.69,12.69,0,0,1-2.9,3.27,5.64,5.64,0,0,1-3.42,1,4.43,4.43,0,0,1-3.34-1.21,4.65,4.65,0,0,1-1.17-3.39,10.14,10.14,0,0,1,2.68-6.83,7.83,7.83,0,0,1,5.92-3.08,3,3,0,0,1,2,.64,2.13,2.13,0,0,1,.74,1.7c0,1.2-.8,2.33-2.39,3.4A16.12,16.12,0,0,1,328.15,152.71Zm.18-.75c4.18-.76,6.28-2.14,6.28-4.13a1.49,1.49,0,0,0-.55-1.11,1.7,1.7,0,0,0-1.21-.5A3.71,3.71,0,0,0,330,148,8.25,8.25,0,0,0,328.33,152Z"/><path class="cls-1" d="M353.65,144.74l-4.34,21.44q-.76,4-6.47,4a6.86,6.86,0,0,1-4.29-1.22A3.82,3.82,0,0,1,337,165.8q0-3.59,6.54-6.65a4.55,4.55,0,0,1-3.15-4.66,8.65,8.65,0,0,1,3.56-6.82Q347.5,144.75,353.65,144.74Zm-6.86,22,1.94-9-.1-.09a11.72,11.72,0,0,1-3.87,2A10,10,0,0,0,340.7,162a4.33,4.33,0,0,0-1.45,3,3.93,3.93,0,0,0,1.35,3,4.44,4.44,0,0,0,3.13,1.26,3.6,3.6,0,0,0,2-.49A3.15,3.15,0,0,0,346.79,166.75ZM349,156.31l2.12-9.89c-.42,0-.72,0-.91,0a7.25,7.25,0,0,0-5.19,1.93,7.09,7.09,0,0,0-2.2,5.42,4.64,4.64,0,0,0,.88,3,2.91,2.91,0,0,0,2.39,1.08,3.23,3.23,0,0,0,1.95-.66A3.77,3.77,0,0,0,349,156.31Z"/><path class="cls-1" d="M358.64,152.71a8.74,8.74,0,0,0-.06,1c0,2.42,1.13,3.63,3.37,3.63q2.46,0,4.68-2.93l.43.56a12.5,12.5,0,0,1-2.89,3.27,5.64,5.64,0,0,1-3.42,1,4.43,4.43,0,0,1-3.34-1.21,4.62,4.62,0,0,1-1.18-3.39,10.15,10.15,0,0,1,2.69-6.83,7.82,7.82,0,0,1,5.92-3.08,3,3,0,0,1,2,.64,2.12,2.12,0,0,1,.73,1.7c0,1.2-.79,2.33-2.39,3.4A16,16,0,0,1,358.64,152.71Zm.19-.75q6.27-1.14,6.27-4.13a1.51,1.51,0,0,0-.54-1.11,1.73,1.73,0,0,0-1.22-.5,3.71,3.71,0,0,0-2.88,1.78A8.23,8.23,0,0,0,358.83,152Z"/><path class="cls-1" d="M376.23,144.78l-.53,2.4.08.08a13.8,13.8,0,0,1,2.38-1.91,4.47,4.47,0,0,1,2.33-.61,4.05,4.05,0,0,1,2.85,1,3.68,3.68,0,0,1,1.09,2.82,7.42,7.42,0,0,1-.17,1.5l-1.35,6.35a3.91,3.91,0,0,0-.1.73.72.72,0,0,0,.42.73,4.63,4.63,0,0,0,1.66.2l-.12.7h-6.83l.12-.7a3.26,3.26,0,0,0,1.8-.47,3.07,3.07,0,0,0,.72-1.67l1.43-6.58a3.5,3.5,0,0,0,.08-.7,2.18,2.18,0,0,0-.65-1.64,2.41,2.41,0,0,0-1.71-.62q-1.87,0-4.31,2.52L374,155.63a7,7,0,0,0-.21,1.33.91.91,0,0,0,.43.88,3.46,3.46,0,0,0,1.54.24l-.12.7h-6.07l.12-.7c.93-.1,1.53-.78,1.8-2.06l1.64-7.56a4.12,4.12,0,0,0,.06-.65c0-.83-.35-1.25-1-1.25a6.67,6.67,0,0,0-1.6.24l.21-.91,4.6-1.11Z"/><path class="cls-1" d="M404.48,134.19,400.1,154.7a7.93,7.93,0,0,0-.23,1.53c0,.79.48,1.18,1.43,1.18.23,0,.7,0,1.39-.12l-.23.83-5.6,1,.42-1.92q-2.7,2-4.52,2a3.61,3.61,0,0,1-2.83-1.46,5.1,5.1,0,0,1-1.22-3.42,9.2,9.2,0,0,1,2.89-6.56c1.93-2,4.71-2.93,8.32-2.86l1.38-6.45a6.37,6.37,0,0,0,.18-1.3c0-.78-.43-1.17-1.31-1.17-.65,0-1.15,0-1.51,0l.21-.83,4.77-1.05Zm-4.77,11.7h-1.84a5.93,5.93,0,0,0-5,2.22,8.59,8.59,0,0,0-1.73,5.43,4.58,4.58,0,0,0,.91,2.89,2.78,2.78,0,0,0,2.28,1.16,4.78,4.78,0,0,0,3.16-1.41Z"/><path class="cls-1" d="M276.18,92.81h2.48l-13.75,32.27H179.17V121.6q6.92,0,9.84-4.62t2.93-15.51V25.7q0-9.75-2.74-13.61t-10-3.85V4.76h40.3V8.24c-4.48,0-7.69,1.48-9.64,4.41s-2.93,7.8-2.93,14.57v80.43q0,6.66,2.64,9.13t10.12,2.46H242c6.9,0,17-2.14,20.13-4.26C266.45,112,273.74,101.29,276.18,92.81Z"/><path class="cls-1" d="M435.64,46.13v2.71c-3.44.49-5.16,2.17-5.16,5.07a9.37,9.37,0,0,0,.92,3.78L446,90.38l10.59-30.56a20.4,20.4,0,0,0,1.25-6c0-3.1-2-4.75-6.1-5V46.13h21.53v2.71A11,11,0,0,0,465.2,52q-3.19,3.15-5.79,10.41l-24.18,68.17c-2.35,6.48-4.72,10.44-8.56,14-3.17,2.95-8,3.63-13.47,3.4V136.89c2.13.9,4.89.29,6.68.45,7.69.68,11-5.9,12.95-11l7.79-21-21.8-47.84q-2.43-5.22-4.82-6.92c-1.6-1.12-6.19-1.71-9.6-1.77V46.13Z"/></g></g></svg>